<svg version="1" xmlns="http://www.w3.org/2000/svg" width="666.667" height="666.667" viewBox="0 0 500.000000 500.000000"><path d="M206.7.8c-1.5.2-2.5.6-2.3 1 .2.4-3 .8-7.2 1-4.3.1-11.5.6-16.2 1.1-4.7.4-8.9.4-9.4 0s-1.9-.3-3.2.3c-1.2.6-3.1.7-4.1.3-1-.5-2-.8-2.3-.7-3.3.5-16.3 1.5-23 1.7-4.7.1-9.2.5-10 .8-.8.3-5.1.8-9.5 1.1-4.4.3-10.7 1-14 1.7-16.4 3-51.9 13.9-54.1 16.6-.6.7-1.6 1.3-2.1 1.3s-2.5 1.7-4.3 3.7c-2 2.2-3.5 3.2-3.8 2.4-.5-1.4 3-4.9 8.2-8 2-1.3 3.6-2.7 3.6-3.2s.6-.9 1.4-.9c.7 0 1.9-.7 2.6-1.5.7-.8 2.1-1.5 3-1.5 1 0 2.1-.6 2.3-1.3.4-.9.8-.8 1.6.3.9 1.3 1.1 1.3 1.1-.1 0-2 3.1-4.9 5.3-4.9.9 0 1.7-.5 1.7-1 0-.6-.3-1-.7-1-1.4 0-7.8 2.5-8.4 3.3-.3.5-.9.8-1.3.8-.8-.2-10.9 5-11.6 5.8-.3.4-2.6 2.2-5.1 4-2.6 1.8-5.2 4.3-5.9 5.7-.8 1.3-2.2 2.4-3.2 2.4s-1.8.5-1.8 1c0 .6-1 2.1-2.3 3.3-3.3 3.1-13.8 17.4-16.5 22.4-1.4 2.6-1.9 4.4-1.2 4.8.5.3 1 0 1-.7.1-2 5.7-7.8 7.7-7.9 1.1 0 1.3-.3.6-.6-1-.3-1-1-.2-2.4.5-1.1 1.3-1.8 1.7-1.5.4.3 1.4-.9 2.1-2.5.7-1.6 1.7-2.9 2.2-2.9 1.2 0 1.2 1.7-.1 2.5-.6.3-1 1.1-1 1.8 0 .6 1.6-.4 3.5-2.3 1.9-1.8 3.7-3.1 4-2.8 1 .9-6.2 8.1-7.3 7.4-.6-.3-1.3-.2-1.6.3-.3.5.4 1.1 1.5 1.4 2.4.6 2 3.3-.4 2.9-.9-.1-2.1.7-2.7 1.8-.6 1.1-1.6 1.7-2.2 1.4-.8-.5-.9-.1-.5 1 .4 1 .1 2.4-.8 3.2-.8.8-1.2 2.1-.9 2.9.3.7-.6 3.4-2.1 5.9-1.5 2.5-2.4 4.6-2 4.6.4 0-.2 1.5-1.3 3.2-1.1 1.8-2.7 7.1-3.6 11.8-.9 4.7-1.8 9.8-2.1 11.5-.5 3-1.3 12.8-1.9 25.6-.2 3.6-.6 7.1-1 7.8-.4.6-.7 4.1-.7 7.8s-.3 7.1-.7 7.7c-.3.6-.7 4.6-.8 9.1-.3 6.9-.7 16.5-1.9 37-2.4 42.5-2.4 60.5 0 103 1.2 20.5 1.6 30.1 1.9 37 .1 4.5.6 8.6 1 9.3.4.7.7 2.7.6 4.5-.1 1.7-.1 3.6 0 4.2.1.5.1 2 0 3.2-.1 1.3.2 2.8.6 3.4.4.7.8 3.7 1 6.8.2 3.1.5 9.4.8 14.1.2 4.7.6 9.6.9 11 .3 1.4 1.3 6.8 2.2 12 1 5.2 2.6 11 3.7 12.7 1.1 1.8 1.7 3.3 1.3 3.3-.4 0 .5 2.1 2 4.6 1.5 2.5 2.4 5.2 2.1 5.9-.3.8.1 2.1.9 2.9.9.8 1.2 2.2.8 3.2-.4 1.2-.3 1.5.5 1 .7-.4 1.5 0 1.8.9.4.8 1.8 2.2 3.3 3 2.6 1.4 2.6 1.4.4 2.1-1.3.3-2.1 1-1.8 1.4.3.4-.2 1-1 1.4-1.9.7-4.1-3-2.2-3.7.7-.3.5-.6-.6-.6-2-.1-7.6-5.9-7.7-7.9 0-.7-.4-1-1-.7-.6.4-.1 2.3 1.2 4.8 2.3 4.7 12.9 19 16.5 22.4 1.3 1.2 2.3 2.7 2.3 3.3 0 .5.8 1 1.8 1s2.4 1.1 3.2 2.4c.7 1.4 3.3 3.9 5.9 5.7 2.5 1.8 5.1 3.8 5.7 4.4.6.5 3.5 2.1 6.5 3.5s5.6 2.7 5.9 3c.6.6 7.3 3 8.3 3 .4 0 .7-.5.7-1.1 0-.6-.6-.9-1.4-.6-1.6.6-5.6-3.2-5.6-5.4 0-1.1-.2-1.1-.9-.1-.6 1.1-1.5.9-4.2-.7-1.9-1.2-4.4-2.5-5.6-3.1-1.3-.5-2.3-1.3-2.3-1.8s-1.7-1.8-3.8-3c-4.6-2.6-7.6-5.6-7-7.3.3-.8 1.7.2 3.8 2.4 1.8 2 3.9 3.7 4.6 3.7.7 0 1.4.5 1.6 1 .6 1.8 16.3 7.2 37.9 13 13.7 3.7 20.6 5 30.4 5.6 4.4.3 8.7.8 9.5 1.1.8.3 5.3.7 10 .8 6.7.2 19.7 1.2 23 1.7.3.1 1.3-.2 2.3-.7 1-.4 2.9-.3 4.1.3 1.3.6 2.7.7 3.2.3.5-.4 4.7-.4 9.4 0 4.7.5 11.9 1 16.2 1.1 4.2.2 7.4.6 7.2.9-.2.4 1 .9 2.7 1.1 2.2.3 2.9.1 2.5-.9-.7-1.8.9-1.7 2.8.2 2.2 2.2 73 2.2 75.2 0 1.9-1.9 3.5-2 2.8-.2-.4 1 .3 1.2 2.5.9 1.7-.2 2.9-.7 2.7-1.1-.2-.3 3-.7 7.2-.9 4.3-.2 11.5-.7 16.2-1.1 4.7-.4 8.9-.4 9.4 0s1.9.3 3.2-.3c1.2-.6 3.1-.7 4.1-.3 1 .5 2 .8 2.3.7 4.4-.6 15.3-1.5 22-1.7 4.7-.1 9.6-.5 11-.9 1.4-.3 5.4-.8 9-1 3.6-.3 8.5-.8 11-1.1 12.9-1.7 54.4-14 57.5-17.2.8-.7 1.8-1.3 2.3-1.3.5 0 2.4-1.7 4.2-3.7 2.2-2.3 3.5-3.2 3.8-2.4.5 1.5-2.8 4.8-7.5 7.6-1.8 1.1-3.3 2.3-3.3 2.7 0 .5-1 1.3-2.2 1.8-1.3.6-3.8 1.9-5.7 3.1-2.7 1.6-3.6 1.8-4.2.7-.7-1-.9-1-.9.1 0 2.2-4 6-5.6 5.4-.8-.3-1.4 0-1.4.6s.3 1.1.7 1.1c1.4 0 7.8-2.5 8.4-3.3.3-.5.9-.8 1.3-.8.8.2 10.9-5 11.6-5.8.3-.4 2.6-2.2 5.1-4 2.6-1.8 5.2-4.3 5.9-5.7.8-1.3 2.2-2.4 3.2-2.4s1.8-.5 1.8-1c0-.6 1-2.1 2.3-3.3 5.7-5.4 20.1-26.8 18-26.7-.4.1-2.1 1.9-3.8 4-1.6 2.1-3.9 4-5 4-1.1.1-1.4.4-.8.7 1 .3 1 1 .2 2.4-.5 1.1-1.4 1.7-2 1.4-.5-.4-.9 0-.9.7-.1 1.8-2.8 5.3-3.6 4.5-.4-.4-.1-1.3.6-2.2 2.3-2.8-.3-1.6-3.7 1.7-1.8 1.8-3.3 2.7-3.3 2.1 0-1.8 6.2-8.3 7.9-8.3 1.2 0 1.1-.3-.4-1.3-2-1.5-1.3-3.9 1-3.1.7.3 1.8-.4 2.5-1.6.6-1.1 1.6-1.7 2.2-1.4.8.5.9.1.5-1-.4-1-.1-2.4.8-3.2.8-.8 1.2-2.1.9-2.9-.3-.7.6-3.4 2.1-5.9 1.5-2.5 2.4-4.6 2-4.6-.4 0 0-1.1.8-2.3 4-6.2 7-25.3 8.1-51.7.1-2.5.5-5.1.9-5.8.5-.7.8-2.2.7-3.5-.1-1.2-.1-2.7 0-3.2.1-.6.1-2.5 0-4.2-.1-1.8.2-3.8.6-4.5.4-.7.9-4.8 1-9.3.3-6.9.8-17.3 1.9-37 2.4-42.4 2.4-60.6 0-103-1.1-19.7-1.6-30.1-1.9-37-.1-4.5-.6-8.6-1-9.3-.4-.7-.7-2.7-.6-4.5.1-1.7.1-3.7 0-4.2-.1-.6-.1-2 0-3.2.1-1.3-.2-2.8-.6-3.4-.4-.7-.8-3.7-1-6.8-.2-3.1-.5-9.4-.8-14.1-.2-4.7-.6-9.6-.9-11-.3-1.4-1.3-6.8-2.2-12-1-5.2-2.6-11-3.7-12.8-1.1-1.7-1.7-3.2-1.3-3.2.4 0-.5-2.1-2-4.6-1.5-2.5-2.4-5.2-2.1-5.9.3-.8-.1-2.1-.9-2.9-.9-.8-1.2-2.2-.8-3.2.4-1.1.3-1.5-.5-1-.6.3-1.6-.3-2.2-1.4-.6-1.1-1.8-1.9-2.7-1.8-2.4.4-2.8-2.3-.4-2.9 1.1-.3 1.9-.9 1.6-1.3-.3-.4.2-1 1-1.4 1.9-.7 4.1 3 2.2 3.7-.7.3-.5.6.6.6 2 .1 7.6 5.9 7.7 7.9 0 .7.5 1 1 .7.7-.4.2-2.2-1.2-4.8-2.7-5-13.2-19.3-16.5-22.4-1.3-1.2-2.3-2.7-2.3-3.3 0-.5-.8-1-1.8-1s-2.4-1.1-3.2-2.4c-.7-1.4-3.3-3.9-5.9-5.7-2.5-1.8-4.8-3.6-5.1-4-.7-.8-10.8-6-11.6-5.8-.4 0-1-.3-1.3-.8-.6-.8-7-3.3-8.4-3.3-.4 0-.7.5-.7 1.1 0 .6.6.9 1.4.6 1.6-.6 5.6 3.2 5.6 5.4 0 1.1.2 1.1.9.1.6-1.1 1.5-.9 4.2.7 1.9 1.2 4.2 2.4 5.2 2.7.9.4 1.7 1 1.7 1.4 0 .5 1.7 1.9 3.8 3.1 5.3 3.3 8.5 6.5 8 8-.3.8-1.6-.1-3.8-2.4-1.8-2-3.9-3.7-4.6-3.7-.7 0-1.4-.5-1.6-1-.6-1.8-16.3-7.2-37.9-13-13.7-3.7-20.6-5-30.4-5.6-4.4-.3-8.7-.8-9.5-1.1-.8-.3-5.8-.7-11-.9-5.2-.2-12.6-.7-16.3-1.2-3.7-.5-7-.5-7.3 0-.5.8-4.6.4-6.3-.6-.5-.4-1.2-.2-1.6.3-.3.6-1.1.8-1.8.6-1.5-.5-13.5-1.4-23.9-1.8-4.2-.1-7.1-.5-6.6-.8.6-.4-.6-.8-2.6-1.1-2.7-.3-3.6 0-3.6 1.1 0 1.2-.3 1.1-1.8-.2C286.5.2 282.4 0 249.8 0c-32.3 0-36.7.2-37.9 1.6-1 1.3-1.4 1.3-1.9.2-.3-.7-1.6-1.2-3.3-1zm31.8 20.3c.5.5 1.6.9 2.5.9.8 0 4.4 1.6 8 3.4 3.6 1.9 8.4 4.3 10.7 5.5 2.3 1.1 5.8 3.8 7.8 6s4.5 4.3 5.5 4.6c1 .3 2.2 1.9 2.5 3.6.4 1.9 1.6 3.4 3.1 3.9 1.3.5 2.4 1.5 2.4 2.1 0 .6 1.4 3.9 3.2 7.3 2.9 5.7 3.1 6.9 3.2 16.8.1 7.3-.3 11.1-1.1 11.9-.7.7-1.3 1.9-1.3 2.7 0 .8-1 2.8-2.2 4.5-1.2 1.7-2.4 4-2.6 5.2-.3 2.4-3.6 5.2-11.7 10.2-3.3 2-6.7 4.2-7.5 4.9-.8.7-3.3 1.6-5.5 1.9-2.2.4-4.7 1.1-5.6 1.6-.9.5-5 1.4-9 2-4.1.6-7.8 1.5-8.4 1.9-.5.4-2.1.9-3.5 1.1-4.2.4-23-1.3-23.5-2.1-.3-.5-3.4-1.2-7-1.5-3.6-.4-6.7-1.1-7-1.5-.3-.5-2.7-1.1-5.4-1.5-2.9-.4-5.7-1.5-6.7-2.6-.9-1-2.2-1.9-2.9-1.9-1.6 0-10.5-9.9-12.1-13.5-.7-1.7-2.2-7.1-3.3-12-1.8-8-1.8-9.7-.7-15 .7-3.3 2-7.7 3-9.9.9-2.1 1.6-4.7 1.6-5.8 0-1 .7-2.1 1.5-2.4.8-.3 1.7-1.5 2.1-2.6.8-2.6 12.2-15.8 14.3-16.5.9-.4 2.6-1.7 3.9-2.9 1.3-1.3 3.8-2.6 5.5-3 1.7-.3 4.1-1.3 5.2-2 3.1-2.1 14.4-5.3 22.1-6.3 7.5-1 17.3-.5 18.9 1zM40 33.8c0 1.4-3.9 4.6-4.6 3.9-.4-.4.1-.9 1-1.3.9-.3 1.6-1.2 1.6-2s.5-1.4 1-1.4c.6 0 1 .4 1 .8zm422 .6c0 .8.7 1.7 1.6 2 .9.4 1.4.9 1 1.3-.7.7-4.6-2.5-4.6-3.9 0-.4.5-.8 1-.8.6 0 1 .6 1 1.4zm-350.3 2c1.5-.4 2.2 0 2.6 1.5.4 1.6 1.3 2.1 3.6 2.1 1.7 0 3.9.4 4.9.9.9.5 2.9 1.4 4.4 2 1.6.6 4.3 3.4 6.4 6.8 2.1 3.2 4.5 6.9 5.4 8.3 3.2 4.7 5.6 13.3 5.4 19-.5 14.8-4.8 29.8-8.9 31.4-.8.3-1.5 1.4-1.5 2.5s-1.5 3.7-3.2 5.8c-1.8 2-2.6 3.3-1.8 2.8 1.3-.8 1.3-.7 0 1-6.9 8.5-12.7 10.8-25.6 10.1-11.5-.7-14.5-1.6-20.3-6.5-3.4-2.8-5.1-5.2-6-8.3-.7-2.4-2.1-6.1-3.2-8.3-4.2-9.4-3.8-25.9 1.2-41.5 2.6-8.1 4-10.8 7.8-15.1 8.5-9.4 12.8-12.8 18.4-14.2 2.9-.8 5.9-1.1 6.8-.6.9.4 2.5.6 3.6.3zM34 40.5c-.7.9-1.5 1.3-1.9 1-.3-.3.1-1 .9-1.5 2.1-1.4 2.4-1.2 1 .5zm434 .7c0 .6-.6.5-1.5-.2-.8-.7-1.5-1.4-1.5-1.6 0-.2.7-.1 1.5.2.8.4 1.5 1.1 1.5 1.6zM39 41c0 .5-.5 1-1.1 1-.5 0-.7-.5-.4-1 .3-.6.8-1 1.1-1 .2 0 .4.4.4 1zm423.5 0c.3.5.1 1-.4 1-.6 0-1.1-.5-1.1-1 0-.6.2-1 .4-1 .3 0 .8.4 1.1 1zm9.5 8.3c0-.7-.4-1.5-1-1.8-.5-.3-1-1-1-1.6 0-1.6 1.5-1 2.8 1.2 1.2 1.8 1.1 2.4-.2 3.8-1.5 1.4-1.9 1.3-5.1-2.2-4.8-5.3-4.4-7 .5-2.2 2.2 2.1 4 3.4 4 2.8zm-32.5 6.4c1.1.6 4.2 2.1 6.9 3.4 2.8 1.3 5.2 3.1 5.4 3.9.3.9-.6.5-2.4-1l-2.9-2.5 3 3.4c1.7 1.9 3.8 4.2 4.7 5.2 1.5 1.6 2.1 3.6 3.2 11.7 1 6.7-3.9 14.4-9.9 15.8-8.6 2-12.9 1.6-19.7-1.6-7.8-3.7-10.7-6.7-13.7-13.8-3.4-8.2-3.7-13.8-.9-19.2 1.3-2.5 3.4-5.1 4.8-5.8 2.9-1.5 18.4-1.1 21.5.5zm-81 10.9c5.2.7 8.1 1.8 15.4 5.9 2.4 1.4 5 2.5 5.7 2.5.7 0 2.5 1.1 4 2.5s3.1 2.5 3.7 2.5c1.6 0 9.7 7 9.7 8.4 0 .7.9 2.1 1.9 3 1.1 1 2.2 2.9 2.6 4.3.3 1.4 1.7 4 2.9 5.7 1.6 2 2.8 5.9 3.7 11.1 4.6 28.3-4 44.4-26.6 50.3-2.2.6-8.5 1-14 .8-9.6-.2-10.3-.4-18.5-4.5-12.1-6-12.9-6.6-15.9-9.8-1.4-1.5-3.7-3.7-5.1-4.8-1.4-1.1-3.3-3.3-4.3-4.8-1-1.6-3.2-3.6-4.8-4.5-1.6-1-3.2-2.6-3.5-3.7-.3-1.1-1.5-4-2.5-6.4-1.1-2.4-1.8-4.9-1.5-5.6.3-.8-.2-1.9-1-2.6-1.4-1.2-1.4-1.4.2-2.6 1.5-1.1 1.5-1.3.2-1.3-1.7 0-3.2-2.6-1.9-3.4.4-.3.6-2.6.4-5.2-.2-2.6 0-5 .5-5.3.5-.3 1.2-3 1.6-5.9.6-5.5 4.6-12.6 10.6-18.9 1.6-1.8 3-3.6 3-4.1 0-1 1.8-1.4 15-3.7 7.4-1.3 8.8-1.3 18.5.1zm-202.6 53.3c4.3.5 7.7 1.5 8.2 2.2 2 3.2.4 14.2-3.4 22.9-1.2 2.7-2.8 4.1-6.4 5.8-7 3.1-10.2 3.4-15.7 1.4-4-1.4-5.2-2.4-5.8-4.7-1.6-5.4 4.2-22.4 7.5-22.5.7-.1 2.3-1.4 3.7-3 1.3-1.7 2.9-3 3.5-3 .5.1 4.3.5 8.4.9zm86.3 22.8c.7.4 3.7.8 6.8.9 9.9.3 30 4 30 5.4 0 .7 7.7 2.2 12.8 2.5 1.3.1 2.8.8 3.2 1.5.7 1.1 1.1 1.1 2.4 0 1.4-1.1 1.6-1 1 .4-.5 1.2-.2 1.5 1.2.9 1.1-.4 1.5-.3 1.1.4-.7 1.1 2 2.8 3.7 2.4 1.7-.4 7 2.2 10.6 5.1 1.9 1.6 7 5.7 11.2 9.1 4.2 3.4 8.9 8 10.3 10.2 1.5 2.2 3.4 4.7 4.1 5.5 4.8 5.3 6.4 7.5 6.4 8.8 0 .8 2 3.4 4.4 5.7 2.9 2.9 4.6 5.6 5 8 .4 2.1 1.1 4.5 1.6 5.4 3.7 6.8 4.6 10.9 5.4 25.1.3 4.7.6 8.6.7 8.7.5.8.4 8-.2 18-.7 10.3-2.9 20.4-5 22.7-.5.5-.3 1.6.3 2.3.9 1.1.8 1.3-.1 1.1-.7-.2-1.8 1.4-2.6 3.5-.7 2.1-2 4.6-2.8 5.5-.9.9-1.9 3-2.3 4.5-.3 1.6-1.3 3.1-2 3.4-.8.3-1.4 1.1-1.4 1.8 0 .8-1.1 2.7-2.5 4.3-1.4 1.7-2.5 3.5-2.5 4 0 .6-.8 1.7-1.8 2.4-.9.7-3.2 3.3-5.1 5.8-1.9 2.5-5.4 5.8-7.8 7.3-2.3 1.6-4.3 3.3-4.3 3.8s-.4.9-1 .9c-1.1 0-7.8 4.3-10.5 6.8-1.1 1-4.6 3-7.7 4.3-3.2 1.3-5.8 2.9-5.8 3.6 0 .8-1.4 1-4 .8-2.2-.2-4 0-4 .3 0 1-13.4 5-19 5.7-2.5.3-9.3.7-15.2.8-8.4.2-10.8.5-10.8 1.6 0 1-.3 1.1-1.4.2-.8-.7-2.9-1.1-4.7-1-3.1.1-19.8-1.5-24.1-2.4-1-.2-2.1-.6-2.4-1-.4-.4-1.8-.7-3-.7-3.8 0-17.4-4.8-17.4-6.1 0-.4-1.2-1-2.7-1.4-1.5-.3-3.9-1.5-5.4-2.6-1.5-1-3.3-1.9-4.1-1.9-.7 0-2.1-.9-3.1-2-.9-1.1-2.4-2-3.2-2-.8 0-1.5-.5-1.5-1 0-.6-.7-1-1.5-1s-2.2-.8-3.2-1.8-4-3.5-6.8-5.7c-5.7-4.4-10.8-9.9-12.7-13.5-.7-1.4-1.8-3-2.4-3.5-1.2-1.2-9.8-14.3-10.7-16.5-.4-.8-1.1-2.2-1.6-3-3.3-5.4-4.6-11.4-7.1-33-1.5-13.1 2.4-45.3 6.1-50.5.4-.6 1.2-3.5 1.8-6.5.7-3.1 2.2-6.8 3.6-8.4 1.4-1.6 2.5-3.9 2.5-5.1 0-1.2 1.1-3.2 2.5-4.5 1.4-1.3 2.5-2.9 2.5-3.6 0-.7 2.5-3.8 5.5-6.9 3-3 5.5-6 5.5-6.5 0-.6.3-1 .8-1 .4 0 2.8-1.7 5.4-3.8 4.3-3.5 7.9-5.9 13.7-9.1 1.5-.8 3.1-2 3.6-2.7.6-.6 2.8-1.7 5-2.4s7.2-2.5 11-4.1c9.2-3.7 14-4.9 25.5-6.5 9.5-1.2 18-1.2 20.2.3zM383 166c0 .5-1 1-2.2 1-1.9 0-2-.2-.8-1 1.9-1.3 3-1.3 3 0zm-327.3 7.8c1.5 2 3.4 4.1 4 4.8 2 1.9 4.4 10 4.5 15.2.1 2.6-.6 6.8-1.6 9.5-2.4 6-6.5 8.7-13.3 8.7-4.9 0-15-2.9-16.2-4.7-.3-.5-1.3-1.2-2.2-1.5-1.7-.7-3.9-10.1-3.9-16.4 0-3.3 4.3-10.7 8.1-14 5.1-4.4 7.4-5.3 12.6-5.2 4.7.1 5.5.4 8 3.6zm372.7 44.3c7.2 2 10.4 3.8 13.6 7.9 1.7 2.1 3.9 4.1 4.8 4.5 1.5.5 6.2 9 6.2 11.4 0 .5.5 1.1 1 1.3.6.2 1.5 3.3 2 6.9 1.4 10-1 25-5 30.7-1.7 2.3-3 4.7-3 5.2 0 .6-.4 1-1 1-.5 0-2.2 1.3-3.7 3-1.4 1.6-3 3-3.5 3-.4 0-2.7 1.3-5 3-2.2 1.6-4.9 3-6 3-1 0-1.8.4-1.8 1 0 .5-1.3.7-3 .4-1.6-.4-3.7-.3-4.7.1-2.7 1.1-9.3.5-13.3-1.2-1.9-.8-3.9-1.6-4.5-1.7-4.2-.8-12.4-10.8-14-17.1-1.4-5.9-.3-27.3 2-37 1.6-7.1 3.5-10.3 10.5-17.4 7.8-8 18-10.8 28.4-8zm-62.5 21.4c.1 1.7-.1 1.7-.9.5-.5-.8-.9-2.6-.9-4 0-2.3.1-2.3.9-.5.5 1.1.9 2.9.9 4zm-274.7-2.2c.9.1 1.5.4 1.2.8-.2.4.9 1.2 2.5 1.9 3.8 1.5 11.1 9.4 13.9 14.8 3.4 6.7 5.3 18.2 4.3 25.7-1.1 7.2-2.6 10.6-7.4 15.7-4.6 5-12.8 6.7-24.7 5-10.6-1.5-16.1-5.2-17.6-11.7-.4-1.6-1.2-3.9-1.9-5-1.9-3-2.5-7.9-1.5-11.5.6-2 .5-4.1-.1-5.8-.7-1.9-.6-3.7.4-6.7.8-2.2 2.2-6.5 3.2-9.5.9-3 2.6-6.6 3.6-8 2.9-3.7 11.3-6.7 17.4-6.2 2.8.2 5.8.5 6.7.5zm275.7 8.4c-.1 3.4-.2 3.5-.9 1.3-1.1-3.6-1.1-5 0-5 .6 0 1 1.7.9 3.7zm15.5 78.4c.5.5 1.5.4 2.3-.2.9-.9 1.3-.8 1.3.1 0 .8 1 .9 2.9.5 1.6-.3 3.2-.2 3.5.4.3.5 2.7 2 5.4 3.2 8.4 4 14.1 8 14.8 10.2.4 1.2 1.5 2.8 2.6 3.5 2.2 1.6 5.4 7.7 6.7 12.9.5 2.1 1.6 6.1 2.3 8.9.8 2.8 1.1 6 .7 7-.4 1-.8 3.9-.8 6.4-.1 4.3-3 15.2-4.4 16.6-.4.4-.7 1.8-.7 3 0 1.3-.4 2.5-.9 2.8-.5.3-1.1 1.6-1.5 2.9-.6 2.4-18.4 21.7-20 21.7-.5 0-2.4 1.1-4.2 2.5-1.8 1.4-3.7 2.5-4.2 2.5s-2.4.8-4.3 1.7c-3.7 1.8-21.9 2.8-24.8 1.3-.9-.4-4.4-1.5-7.8-2.4-9.1-2.3-17.4-7.6-23.3-14.9-6.1-7.6-8.4-14.9-9.5-30.5-.3-5.4 5.2-21.2 7.4-21.2.3 0 1.2-1.4 1.8-3 .6-1.7 1.8-3 2.7-3 .9 0 1.8-1 2.1-2.3.4-1.3 1.9-3.1 3.5-4 1.5-.9 3.1-2.8 3.4-4.1.3-1.3 2.1-3.4 3.9-4.5 1.8-1.1 4.2-3 5.3-4.2 3.6-4 18.1-12.7 24.9-15 2.3-.7 7.6 0 8.9 1.2zm-225.2 12.4l1.1 2-2.4-2c-2.8-2.4-3.9-3.7-3.9-4.9 0-1.3 4 2.4 5.2 4.9zm-48.7-1.7c-.3.3-1.1 0-1.8-.7-.9-1-.8-1.1.6-.5 1 .3 1.5.9 1.2 1.2zm-2.5.7c5 .8 10.2 1.2 11.5.9 2.5-.6 6.9 1.2 6.1 2.5-.3.4 1.1 1.5 3.1 2.5 4.1 2 10.3 6.5 10.3 7.6 0 .4 2.9 5.1 6.5 10.4 8.2 12.3 11.4 18.8 12.6 25.1.5 2.7 1.3 7.2 1.9 10 1.4 6.9 1.5 15.6.3 18-.6 1.1-3.1 6-5.5 10.9-2.3 4.9-5.4 9.6-6.7 10.5-1.3.9-3.4 2.7-4.7 4-1.4 1.3-3.3 2.9-4.3 3.5-.9.6-3.3 2.1-5.2 3.3-1.9 1.3-4.1 2.3-5 2.3-.9 0-4.5.9-8 2.1-8.6 2.7-21.3 3.3-31.4 1.3-7.3-1.4-17.9-5.6-19.1-7.6-.3-.4-1.1-.8-1.8-.8-1.2 0-9.6-7.6-9.6-8.7 0-.2-2.6-4.3-5.9-9.1-4-5.9-6.1-10.1-6.6-13.2-.4-2.5-1.1-5-1.5-5.5-.4-.6-1-2.5-1.2-4.4-.7-5 .8-27 2-28.4.5-.7 1.3-3.2 1.7-5.6.4-2.4 1.6-5.2 2.7-6.3 1.1-1.1 2.6-3.5 3.4-5.4.8-1.8 3.5-5.3 6.1-7.6 2.5-2.4 5.3-5 6.2-5.9 2.3-2.3 8-5.1 9.1-4.4.5.3 2 0 3.2-.6 5.5-3 17.7-3.5 29.8-1.4zm7.5.3c-.3.3-1.1 0-1.8-.7-.9-1-.8-1.1.6-.5 1 .3 1.5.9 1.2 1.2zM252 365c0 .5-.4 1-1 1-.5 0-1-.5-1-1 0-.6.5-1 1-1 .6 0 1 .4 1 1zm204.5 7.9c7.7 2.4 12.2 5 13 7.3.4 1.3.8 2.5.9 2.8 3.8 8.6 4.2 13.9 1.6 22.2-1.1 3.7-3.4 8-5.3 10.3-3.3 3.8-3.7 3.9-10.4 4.3-9.4.5-13.1-1.2-16-7.6-1.2-2.6-2.4-6.4-2.8-8.4-.7-4.6 1.4-20.8 3-22.8.7-.8 1.5-2.3 1.8-3.3.4-1 2-2.3 3.7-2.8 1.6-.6 2.8-1.5 2.5-1.9-.7-1.1 2.8-3.1 3.5-2.1.3.5 2.3 1.4 4.5 2zm-139.6 27.6c.1 1.6-.1 1.7-.9.5-.5-.8-.9-3.1-.9-5l.1-3.5.8 3c.4 1.6.8 3.9.9 5zm-30.1 23.6c7.1 2.4 9.5 5.1 10.9 11.9 1.1 5.6-.8 13.3-4.3 17.1-1.3 1.4-2.4 3-2.4 3.6 0 2-6.4 3.5-18.5 4.2-11.5.8-16.5.2-16.5-1.8 0-.5-1.2-1.2-2.7-1.6-7.5-1.8-10.2-11.7-5.7-20.3.8-1.5 1.4-3 1.4-3.4 0-.4 1.2-1.9 2.6-3.3 2.7-2.7 11.2-5.7 20.4-7.3 8.1-1.4 8.1-1.4 14.8.9zM33 452c3.8 4.8 2.9 5.2-1.7.8-1.8-1.8-3.3-2.7-3.3-2.1 0 .7.5 1.5 1 1.8.6.3 1 1 1 1.6 0 1.6-1.5 1-2.8-1.2-1-1.6-1-2.4-.1-3.5 1.7-2.1 2.4-1.8 5.9 2.6zm1 7.5c1.1 1.3 1 1.4-.4.9-.9-.3-1.6-1-1.6-1.5 0-1.3.6-1.1 2 .6zm5-.5c0 .5-.2 1-.4 1-.3 0-.8-.5-1.1-1-.3-.6-.1-1 .4-1 .6 0 1.1.4 1.1 1zm424-.6c0 .3-.4.8-1 1.1-.5.3-1 .1-1-.4 0-.6.5-1.1 1-1.1.6 0 1 .2 1 .4zm5 .5c0 .5-.7 1.2-1.6 1.5-1.4.5-1.5.4-.4-.9 1.4-1.7 2-1.9 2-.6zm-429.8 4.8c1.8 1.6 2.4 3.3 1.1 3.3-1-.1-4.6-5-3.7-5 .4 0 1.6.7 2.6 1.7zm425.1.8c-1.7 2.3-3.3 3.2-3.3 1.8 0-1 3.2-4.3 4.2-4.3.5 0 .1 1.1-.9 2.5z"/><path d="M222.8 55.6c-.3.3-1.9.7-3.4.8-3.6.4-3.6 1.7.4 11.6 1.7 4.1 4.5 11.7 6.3 16.7l3.2 9.3h3.8c2.1 0 4-.4 4.4-.9.3-.5-1.1-8.3-3-17.3-2-9-3.7-16.8-3.8-17.3-.6-2.4-2-3.5-4.6-3.5-1.5 0-3 .3-3.3.6zM86.2 88.7c.9 7.3 4.7 19.7 7.7 25.3.6 1 2 1.4 4.7 1.1 2.1-.1 4-.4 4.2-.6.3-.3-.1-1.2-3.2-7.2-.9-1.7-1.4-3.8-1-4.6.3-.8-.1-1.7-.9-2-.7-.3-1.9-3.1-2.7-6.3-1.9-8.4-2.6-9.4-6.1-9.4-3 0-3.1.1-2.7 3.7zM124.4 122.2l-1.9 2.3 2.3-1.9c2.1-1.8 2.7-2.6 1.9-2.6-.2 0-1.2 1-2.3 2.2zM119.4 125.6c-1.8 1.4-1.8 1.5.4.4 1.2-.6 2.2-1.3 2.2-1.5 0-.8-.5-.6-2.6 1.1zM424.8 61.8c-2.1.4-2.1 1.1-.4 11.6 1.4 8.7 3.3 11.4 6.8 9.5 1.7-.9 1.9-1.7 1.3-5.7-1.1-6.7-1.2-8.3-1.4-12.4-.1-3.9-.6-4.2-6.3-3zM341 88.2c0 2.8 4.1 19.2 5.1 20.3.5.5.9 2.6.9 4.7s.4 4.6.9 5.6c.9 1.6 2.3 6.3 2.5 8.7.5 4 1.9 5.5 5.2 5.5 5.7 0 5.4 1.2 3.5-14-.7-5.2-1.6-14.3-2-20.2-.4-5.9-1.1-11.1-1.5-11.5-.4-.4-3.9-.8-7.7-.9-6.2-.1-6.9.1-6.9 1.8zM144.5 130.9c-1.4 4.5 1.6 14.3 4.5 14.9 1.4.2 1.5-.7.9-6.5-.4-3.7-1-7.6-1.4-8.6-.9-2.3-3.2-2.2-4 .2zM266.5 207c-.4.6-1.1.8-1.6.4-.5-.3-1.5-.1-2.2.4-2.7 2.2-18.8 7.2-27.3 8.6-3.1.5-4.5 1.6-3.7 2.9.4.7.8 1.4.8 1.7.1.3.5 2 .9 3.8.4 1.9 1 4.6 1.2 6 .7 3.8 1 5.5 1.7 7.2.5 1.3 1.1 3.9 2.1 9 .1.8.5 2.2.9 3 .3.8.9 4 1.2 7 .3 3 1.4 10.2 2.5 16 1 5.8 2.7 15.9 3.6 22.5.9 6.6 2.1 12.4 2.5 12.9.7.8 5 0 10.9-2.2.8-.3 1.8-.6 2.2-.6 1.4-.2 2-1.7 2.2-5.6.1-2.3-.1-4.3-.6-4.6-.5-.3-.5-1.1-.1-1.7.4-.7.8-6.2.9-12.2.2-9.9.7-23.5 1.9-55.5.2-5.8.7-12.6.9-15.3.5-4.7.3-5.6-.9-3.7zM47.9 179.9c-1.3 1.1-1.8 2-1.1 2.1.6 0 1.2.6 1.2 1.3 0 .8 1.4 4.1 3 7.5 1.7 3.4 3 6.7 3 7.2 0 1.8 1.8 1.1 2.5-1 .7-2.2-.9-8.3-4-14.6l-2.2-4.5-2.4 2zM399.5 257.8c-.5.6.3 6.6 1.2 9.2.3.8.7 2.2.8 3 .1.8.8 4.3 1.5 7.8 1.6 7.2 3.2 9.1 5.6 7.2 1.2-1 1.4-2.4.9-5.9-.4-2.5-1-8.1-1.5-12.4-.4-4.3-1-8.1-1.4-8.4-.8-.8-6.4-1.1-7.1-.5zM77.7 256.7c-1.2 1.1-.8 4.3 1.3 9.1 1 2.6 2.1 5.4 2.2 6.2.2.8.5 1.7.8 2 .3.3 1.4 2.3 2.5 4.5 2.2 4.2 4.5 4.8 7.5 1.9 1.2-1.2 1.2-1.6-.5-2.7-1.1-.9-1.6-2-1.2-3.1.4-1 .3-1.5-.3-1.1-.6.3-1-.3-1-1.4 0-1.1-.5-2.3-1.1-2.7-.6-.3-.9-1.5-.6-2.5.3-1.1.2-1.9-.3-1.9-.4 0-1.1-1-1.5-2.3-.4-1.2-.8-2.4-1-2.7-.1-.3-.5-1.3-.9-2.3-.8-1.7-4.6-2.4-5.9-1zM398 352c-7.5 2.2-7.4 2.1-7.2 8.5.1 1.6.2 10.8.3 20.3l.2 17.3 4.1-.7c2.3-.3 4.3-.8 4.5-1 .6-.5 1.9-16.8 2.6-32.2.6-14.1.7-13.8-4.5-12.2zM119 338c2 1.3 3.3 1.3 2.5 0-.3-.6-1.4-1-2.3-1-1.5 0-1.5.2-.2 1zM84.4 377c-1.2.5-2.5 1.4-2.9 2-.4.6-2.4 2.4-4.5 3.9l-3.9 2.8 4.2 4.6c2.3 2.5 6.1 6.8 8.4 9.4 12.8 14.6 14.6 16.3 16 15.1 3.4-2.8 3.5-4.7.6-8.6-1.5-2-3.9-6-5.2-8.7-1.4-2.8-3.2-5.9-4.2-7-.9-1.1-2-3.6-2.4-5.5-.7-3.1-3.2-9.1-3.8-8.9-.1 0-1.2.4-2.3.9zM447.8 382.1c-2.1 1.2-2.4 6.3-.6 13.9.8 3.7 1.6 4.9 2.6 4.5.7-.3 1.8-.5 2.3-.5 1.2 0 1.1-10.7-.1-11.5-.6-.4-.8-1.1-.4-1.6.7-1.2-.4-5.9-1.4-5.9-.4 0-1.5.5-2.4 1.1zM273.4 434.4c.3 1.4.9 4.8 1.2 7.7.6 5.9 1.9 9.9 3.2 9.9.4 0 1.6-.6 2.5-1.3 1.5-1.1 1.6-1.9.8-6.2-.5-2.8-1.2-6.7-1.6-8.8-.5-3.3-.9-3.7-3.7-3.7-2.7 0-3 .3-2.4 2.4zM69 8c-2.3.7-2.3.8-.3.9 1.2.1 2.5-.4 2.8-.9.3-.6.5-1 .3-.9-.2.1-1.4.5-2.8.9zM428.8 8.2c.6.6 1.8.8 2.8.6 1.4-.3 1.2-.5-.9-1-1.9-.3-2.5-.2-1.9.4zM81.5 10c-.7 1.2.2 1.2 3 0 1.9-.8 1.9-.9-.2-.9-1.2-.1-2.5.3-2.8.9zM415.5 10c2.8 1.2 3.7 1.2 3 0-.3-.6-1.6-1-2.8-.9-2.1 0-2.1.1-.2.9zM72.6 12.5c-6.3 2.9-4.6 3.9 1.9 1.1 2.7-1.2 4.5-2.5 4-2.8-.6-.3-3.2.4-5.9 1.7zM421.5 10.9c-.2.5 1.8 1.8 4.5 2.9 2.7 1.1 5.2 1.7 5.5 1.3.2-.5-.3-1.1-1.3-1.4-.9-.4-3.2-1.3-4.9-2.1-1.8-.8-3.5-1.1-3.8-.7zM47 11.7c-6.1 2-17 9-17 10.9 0 1 .9.7 2.8-1.1 1.5-1.4 3.5-2.8 4.5-3.1.9-.3 1.7-.9 1.7-1.4 0-.5 1.4-1.1 3-1.5 1.7-.4 3-1.1 3-1.6 0-.6.3-.8.8-.5.4.2 1.6-.2 2.7-1 1.9-1.4 1.3-1.7-1.5-.7zM451.5 12.3c1.1.9 2.3 1.3 2.7 1.1.5-.3.8-.1.8.5 0 .5 1.4 1.2 3 1.6 1.7.4 3 1 3 1.5s.8 1.1 1.8 1.4c.9.3 2.9 1.7 4.5 3.1 1.7 1.6 2.7 2.1 2.7 1.2 0-2.3-11.6-9.7-17.5-11.1-2.8-.7-2.9-.6-1 .7zM13.4 37.9c-2.8 3.4-4.7 7.1-4.1 7.8.3.3 1.3-1 2.2-2.9 1-1.8 2.4-4.1 3.3-5.1.8-.9 1.3-1.9 1.1-2.1-.2-.2-1.3.8-2.5 2.3zM485.1 37.5c.9 1.1 2.4 3.5 3.4 5.3.9 1.9 1.9 3.2 2.1 2.9.9-.8-2.2-6-4.7-8.2-2.4-2-2.4-2-.8 0zM10.5 48.1c-.4.6-.5 1.2-.2 1.5.2.3.7-.2 1-1.1.7-1.7.1-2-.8-.4zM488.6 48.3c.3 1 .9 1.5 1.2 1.2.3-.3 0-1.1-.7-1.8-1-.9-1.1-.8-.5.6zM10 450.9c0 .6.4 1.3 1 1.6.6.3.7-.1.4-.9-.7-1.8-1.4-2.1-1.4-.7zM9.1 454.3c-.2 1.5 2.7 6.2 4.9 8.2 2.2 2 2.2 1.9-.1-1.6-1.3-2-2.9-4.5-3.6-5.5-.6-1.1-1.2-1.5-1.2-1.1zM488.5 457.2c-1 1.8-2.5 4.2-3.4 5.3-1.6 2-1.6 2 .8 0 2.5-2.2 5.6-7.4 4.7-8.2-.2-.3-1.2 1-2.1 2.9zM469.1 476.5c-.1.6-1.9 2.2-4.1 3.5-2.2 1.4-4 2.8-4 3.2 0 .3-1.3.9-3 1.3-1.6.4-3 1.1-3 1.6 0 .6-.3.8-.8.5-.4-.2-1.6.2-2.7 1.1-1.9 1.3-1.8 1.4 1 .7 6.5-1.6 18.1-9.3 17.2-11.5-.3-.8-.6-.9-.6-.4zM32.5 480.3c4.9 3.6 10.7 6.7 15.6 8.2 2.3.7 2.3.7.4-.8-1.1-.8-2.3-1.3-2.7-1.1-.5.3-.8 0-.8-.5 0-.6-.9-1.1-1.9-1.1-1.1 0-2.6-.6-3.3-1.3-1.6-1.5-8.6-5.7-9.6-5.7-.4 0 .6 1.1 2.3 2.3zM68.6 484.7c-.9.9 8.7 5.2 9.8 4.5.5-.3-.6-1.2-2.5-2s-4.1-1.8-5-2.3c-.9-.4-2-.5-2.3-.2zM429.5 485c-.3.5-1.4 1-2.4 1-1.9 0-5.9 2.6-5.1 3.3.3.3 2.7-.5 5.4-1.8 2.7-1.2 4.4-2.5 3.8-2.9-.6-.3-1.3-.2-1.7.4zM81.5 490c.3.5 1.6 1 2.8.9 2.1 0 2.1-.1.2-.9-2.8-1.2-3.7-1.2-3 0zM415.5 490c-1.9.8-1.9.9.2.9 1.2.1 2.5-.4 2.8-.9.7-1.2-.2-1.2-3 0z"/></svg>